<?xml version="1.0"?>
<svg xmlns="http://www.w3.org/2000/svg" id="Layer_1" data-name="Layer 1" viewBox="0 0 64 64"><title>Icons8 RSL Colored Part 5</title><rect x="9" y="9" width="52" height="46" rx="2" ry="2" style="fill:#85cbf8;"/><rect x="17" y="3" width="4" height="12" rx="2" ry="2" style="fill:#ffefb8;"/><rect x="49" y="3" width="4" height="12" rx="2" ry="2" style="fill:#ffefb8;"/><rect x="33" y="3" width="4" height="12" rx="2" ry="2" style="fill:#ffefb8;"/><polygon points="9.38 22.19 16 18.06 19 20.13 21.81 18.06 25.25 20.13 28 18.06 31 20.13 34 18.06 37 20.13 40 18.06 42.75 19.81 45.7 18.06 49 19.81 52 18.31 55 20.13 58 17.75 61 20 61 53 59 55 55 55 9.38 55 9.38 22.19" style="fill:#ed7899;"/><path d="M59,8H54V5a3,3,0,0,0-6,0V8H38V5a3,3,0,0,0-6,0V8H22V5a3,3,0,0,0-6,0V8H11a3,3,0,0,0-3,3V53a3,3,0,0,0,3,3H59a3,3,0,0,0,3-3V11A3,3,0,0,0,59,8ZM50,5a1,1,0,0,1,2,0v8a1,1,0,0,1-2,0ZM34,5a1,1,0,0,1,2,0v8a1,1,0,0,1-2,0ZM18,5a1,1,0,0,1,2,0v8a1,1,0,0,1-2,0ZM59,54H11a1,1,0,0,1-1-1V11a1,1,0,0,1,1-1h5v3a3,3,0,0,0,6,0V10H32v3a3,3,0,0,0,6,0V10H48v3a3,3,0,0,0,6,0V10h5a1,1,0,0,1,1,1v7.13l-1.45-1a1,1,0,0,0-1.11,0L55,18.8l-2.45-1.63a1,1,0,0,0-1.11,0L49,18.8l-2.45-1.63a1,1,0,0,0-1.11,0L43,18.8l-2.45-1.63a1,1,0,0,0-1.11,0L37,18.8l-2.45-1.63a1,1,0,0,0-1.11,0L31,18.8l-2.49-1.64a1,1,0,0,0-1.11,0L25,18.8l-2.44-1.63a1,1,0,0,0-1.11,0L19,18.8l-2.45-1.63a1,1,0,0,0-1.11,0l-3,2a1,1,0,0,0,1.11,1.66L16,19.2l2.45,1.63a1,1,0,0,0,1.11,0L22,19.2l2.45,1.63a1,1,0,0,0,1.12,0L28,19.2l2.48,1.63a1,1,0,0,0,1.1,0L34,19.2l2.45,1.63a1,1,0,0,0,1.11,0L40,19.2l2.45,1.63a1,1,0,0,0,1.11,0L46,19.2l2.45,1.63a1,1,0,0,0,1.11,0L52,19.2l2.45,1.63a1,1,0,0,0,1.11,0L58,19.2l2,1.33V53A1,1,0,0,1,59,54Z" style="fill:#8d6c9f;"/><path d="M55,26l-3-2-3,2-3-2-3,2-3-2-3,2-3-2-3,2-3-2-3,2-3-2-3,2-3-2-3,2-3-2L7,26,4,24l-1,.67V59a2,2,0,0,0,2,2H53a2,2,0,0,0,2-2V26" style="fill:#85cbf8;"/><path d="M52,61H6a3,3,0,0,1-3-3v1a3,3,0,0,1,3-3H52a3,3,0,0,1,3,3V58A3,3,0,0,1,52,61Z" style="fill:#ace3ff;"/><path d="M55.55,25.17l-3-2a1,1,0,0,0-1.11,0L49,24.8l-2.45-1.63a1,1,0,0,0-1.11,0L43,24.8l-2.45-1.63a1,1,0,0,0-1.11,0L37,24.8l-2.45-1.63a1,1,0,0,0-1.11,0L31,24.8l-2.45-1.63a1,1,0,0,0-1.11,0L25,24.8l-2.49-1.64a1,1,0,0,0-1.11,0L19,24.8l-2.44-1.63a1,1,0,0,0-1.11,0L13,24.8l-2.45-1.63a1,1,0,0,0-1.11,0L7,24.8,4.55,23.17a1,1,0,0,0-1.11,0l-1,.67a1,1,0,0,0-.45.83V59a3,3,0,0,0,3,3H53a3,3,0,0,0,3-3V26A1,1,0,0,0,55.55,25.17ZM54,59a1,1,0,0,1-1,1H5a1,1,0,0,1-1-1V58a1,1,0,0,0,1-1V55a1,1,0,0,0-1-1V25.2l2.45,1.63a1,1,0,0,0,1.11,0L10,25.2l2.45,1.63a1,1,0,0,0,1.11,0L16,25.2l2.45,1.63a1,1,0,0,0,1.12,0L22,25.2l2.48,1.63a1,1,0,0,0,1.1,0L28,25.2l2.45,1.63a1,1,0,0,0,1.11,0L34,25.2l2.45,1.63a1,1,0,0,0,1.11,0L40,25.2l2.45,1.63a1,1,0,0,0,1.11,0L46,25.2l2.45,1.63a1,1,0,0,0,1.11,0L52,25.2l2,1.33V54a1,1,0,0,0-1,1v2a1,1,0,0,0,1,1Z" style="fill:#8d6c9f;"/><path d="M19,54a1,1,0,0,0-1,1v2a1,1,0,0,0,2,0V55A1,1,0,0,0,19,54Z" style="fill:#8d6c9f;"/><path d="M24,54a1,1,0,0,0-1,1v2a1,1,0,0,0,2,0V55A1,1,0,0,0,24,54Z" style="fill:#8d6c9f;"/><path d="M9,54a1,1,0,0,0-1,1v2a1,1,0,0,0,2,0V55A1,1,0,0,0,9,54Z" style="fill:#8d6c9f;"/><path d="M14,54a1,1,0,0,0-1,1v2a1,1,0,0,0,2,0V55A1,1,0,0,0,14,54Z" style="fill:#8d6c9f;"/><path d="M34,54a1,1,0,0,0-1,1v2a1,1,0,0,0,2,0V55A1,1,0,0,0,34,54Z" style="fill:#8d6c9f;"/><path d="M29,54a1,1,0,0,0-1,1v2a1,1,0,0,0,2,0V55A1,1,0,0,0,29,54Z" style="fill:#8d6c9f;"/><path d="M39,54a1,1,0,0,0-1,1v2a1,1,0,0,0,2,0V55A1,1,0,0,0,39,54Z" style="fill:#8d6c9f;"/><path d="M44,54a1,1,0,0,0-1,1v2a1,1,0,0,0,2,0V55A1,1,0,0,0,44,54Z" style="fill:#8d6c9f;"/><path d="M49,54a1,1,0,0,0-1,1v2a1,1,0,0,0,2,0V55A1,1,0,0,0,49,54Z" style="fill:#8d6c9f;"/><path d="M34,47V42a3,3,0,0,0-1.4-2.53A3,3,0,0,0,33,38V35a3,3,0,0,0-3-3H28a3,3,0,0,0-3,3v3a3,3,0,0,0,.4,1.47A3,3,0,0,0,24,42v5a3,3,0,0,0,3,3h4A3,3,0,0,0,34,47ZM27,35a1,1,0,0,1,1-1h2a1,1,0,0,1,1,1v3a1,1,0,0,1-1,1H28a1,1,0,0,1-1-1Zm5,12a1,1,0,0,1-1,1H27a1,1,0,0,1-1-1V42a1,1,0,0,1,1-1h4a1,1,0,0,1,1,1Z" style="fill:#fff;"/><polygon points="12.5 37 13.74 39.26 16 40.5 13.74 41.74 12.5 44 11.26 41.74 9 40.5 11.26 39.26 12.5 37" style="fill:#9fddff;"/><polygon points="42.42 35 43.27 36.56 44.84 37.42 43.27 38.27 42.42 39.84 41.56 38.27 40 37.42 41.56 36.56 42.42 35" style="fill:#9fddff;"/><polygon points="47.35 45 47.94 46.06 49 46.65 47.94 47.23 47.35 48.3 46.77 47.23 45.7 46.65 46.77 46.06 47.35 45" style="fill:#9fddff;"/></svg>
